<svg xmlns="http://www.w3.org/2000/svg" id="Layer_1" data-name="Layer 1" viewBox="0 0 230.1 54.59">
  <defs>
    <style>
      .cls-1 {
      fill: #ffffff;
      }
    </style>
  </defs>
  <path class="cls-1"
        d="M54.54.05H28.39V26.21H54.54ZM36.89,4.48A1.89,1.89,0,1,1,35,6.37,1.9,1.9,0,0,1,36.89,4.48ZM48,21.6h-3.8V16.22l3.8-3.5Zm0-12L44.09,13.4l-4.41,4L35,21.6V10.36h3.8v2.91L48,4.49h0Z"/>
  <path class="cls-1"
        d="M26.15.05H0V26.21H26.15Zm-18,21.53H4.38l5.45-10.9,1.87,3.74Zm9.66,0L11.07,8.15l1.85-3.69,8.55,17.12Z"/>
  <path class="cls-1"
        d="M54.54,28.45H28.39V54.59H54.54ZM33,50.18l5.45-10.9L40.32,43l-3.58,7.16Zm8.54-.92a1.89,1.89,0,1,1,1.89-1.89A1.89,1.89,0,0,1,41.53,49.26Zm4.86.92L39.68,36.75l1.85-3.69,8.56,17.12Z"/>
  <path class="cls-1"
        d="M26.15,28.45H0V54.59H26.15ZM10.42,50.17H6.57V38.9h3.85ZM8.49,36.92A1.92,1.92,0,1,1,10.42,35,1.92,1.92,0,0,1,8.49,36.92Zm10.77,0H12.4V33.08h6.86Z"/>
  <polygon class="cls-1"
           points="65.55 4.55 65.55 21.63 78.5 21.63 78.5 25.05 81.93 25.05 81.93 18.36 79.78 18.36 79.78 4.55 75.87 4.55 75.87 18.36 69.47 18.36 69.47 4.55 65.55 4.55"/>
  <polygon class="cls-1"
           points="95.2 10.54 95.35 10.54 95.35 21.63 99.27 21.63 99.27 4.55 95.23 4.55 88.95 15.67 88.8 15.67 88.8 4.55 84.89 4.55 84.89 21.63 88.91 21.63 95.2 10.54"/>
  <path class="cls-1"
        d="M121.58,12.5c0-4.07-3.21-7-7.63-7h-.18V3.7h-3.91V5.48h-.18c-4.41,0-7.62,2.95-7.62,7s3.21,7.23,7.62,7.23h.18v2.2h3.91v-2.2H114C118.37,19.73,121.58,16.69,121.58,12.5Zm-11.72,4h-.18a3.81,3.81,0,0,1-3.64-4,3.69,3.69,0,0,1,3.64-3.81h.18Zm4.09,0h-.18V8.69H114a3.69,3.69,0,0,1,3.64,3.81A3.81,3.81,0,0,1,114,16.53Z"/>
  <path class="cls-1"
        d="M136.94,10.37c0-3.42-2.26-5.82-5.5-5.82h-7.07V21.63h3.91V16.24h3.16C134.68,16.24,136.94,13.83,136.94,10.37Zm-8.66,2.57V7.86h2.35A2.22,2.22,0,0,1,133,10.37a2.28,2.28,0,0,1-2.39,2.57Z"/>
  <path class="cls-1"
        d="M147.6,4.26A8.64,8.64,0,0,0,138.66,13a8.95,8.95,0,1,0,17.89,0A8.65,8.65,0,0,0,147.6,4.26Zm0,14.12a5.1,5.1,0,0,1-4.88-5.4,4.89,4.89,0,1,1,9.77,0A5.11,5.11,0,0,1,147.6,18.38Z"/>
  <path class="cls-1"
        d="M165.84,4.55h-6.23V21.63h6.23c1.94,0,6.46-.48,6.46-5a3.77,3.77,0,0,0-2.61-3.76l-.12,0v-.28l.09,0a4.07,4.07,0,0,0,1.93-3.55C171.59,6.19,169.44,4.55,165.84,4.55Zm-2.32,3.31h2.3a1.59,1.59,0,0,1,1.79,1.66,1.65,1.65,0,0,1-1.72,1.79h-2.37Zm2.74,10.47h-2.74v-4h2.76a1.86,1.86,0,0,1,2,2A1.92,1.92,0,0,1,166.26,18.33Z"/>
  <path class="cls-1"
        d="M183.38,4.26A8.65,8.65,0,0,0,174.43,13a8.95,8.95,0,1,0,17.89,0A8.64,8.64,0,0,0,183.38,4.26Zm0,14.12a5.11,5.11,0,0,1-4.89-5.4,4.89,4.89,0,1,1,9.77,0A5.1,5.1,0,0,1,183.38,18.38Z"/>
  <path class="cls-1"
        d="M198.34.13V0h3.06V.15a1.38,1.38,0,0,0,1.48,1.41A1.39,1.39,0,0,0,204.36.15V0h3V.13c0,2.34-2.1,3.65-4.51,3.65S198.34,2.47,198.34.13Z"/>
  <polygon class="cls-1"
           points="205.69 10.54 205.84 10.54 205.84 21.63 209.75 21.63 209.75 4.55 205.72 4.55 199.44 15.67 199.29 15.67 199.29 4.55 195.38 4.55 195.38 21.63 199.39 21.63 205.69 10.54"/>
  <path class="cls-1"
        d="M81.22,41.43a8.41,8.41,0,0,0-8.84-8.74,9.24,9.24,0,0,0-6.58,2.43L67.59,38a7,7,0,0,1,4.62-1.86A4.67,4.67,0,0,1,77,39.76l0,.22H69.82V43h7.24l0,.22a4.62,4.62,0,0,1-4.8,3.6,7.56,7.56,0,0,1-4.77-1.8l-1.9,2.76a9.91,9.91,0,0,0,6.64,2.53A8.68,8.68,0,0,0,81.22,41.43Z"/>
  <polygon class="cls-1"
           points="93.92 50.06 98.29 50.06 93.44 41.19 93.44 41.09 98.02 32.98 93.84 32.98 90.23 39.71 88.19 39.71 88.19 32.98 84.28 32.98 84.28 50.06 88.19 50.06 88.19 42.99 90.24 42.99 93.92 50.06"/>
  <path class="cls-1"
        d="M108.22,32.69a8.64,8.64,0,0,0-8.94,8.72,8.94,8.94,0,0,0,17.88,0A8.64,8.64,0,0,0,108.22,32.69Zm0,14.12a5.1,5.1,0,0,1-4.88-5.4,4.89,4.89,0,1,1,9.77,0A5.11,5.11,0,0,1,108.22,46.81Z"/>
  <polygon class="cls-1"
           points="135.56 50.06 135.56 32.98 131.65 32.98 131.65 39.95 124.14 39.95 124.14 32.98 120.23 32.98 120.23 50.06 124.14 50.06 124.14 43.23 131.65 43.23 131.65 50.06 135.56 50.06"/>
  <path class="cls-1"
        d="M147.56,32.69a8.64,8.64,0,0,0-8.94,8.72,8.94,8.94,0,0,0,17.88,0A8.64,8.64,0,0,0,147.56,32.69Zm0,14.12a5.1,5.1,0,0,1-4.88-5.4,4.89,4.89,0,1,1,9.77,0A5.11,5.11,0,0,1,147.56,46.81Z"/>
  <polygon class="cls-1"
           points="173.6 50.06 177.51 50.06 176.12 32.98 171.78 32.98 168.38 43.22 168.06 43.22 164.65 32.98 160.31 32.98 158.9 50.06 162.83 50.06 163.34 39.28 163.71 39.28 166.51 47.26 169.92 47.26 172.72 39.28 173.09 39.28 173.6 50.06"/>
  <polygon class="cls-1"
           points="208.9 50.06 213.27 50.06 208.42 41.19 208.42 41.09 213 32.98 208.83 32.98 205.22 39.71 203.18 39.71 203.18 32.98 199.26 32.98 199.26 50.06 203.18 50.06 203.18 42.99 205.22 42.99 208.9 50.06"/>
  <polygon class="cls-1"
           points="226.04 38.97 226.19 38.97 226.19 50.06 230.1 50.06 230.1 32.98 226.06 32.98 219.78 44.1 219.64 44.1 219.64 32.98 215.72 32.98 215.72 50.06 219.74 50.06 226.04 38.97"/>
  <polygon class="cls-1"
           points="191.19 38.97 191.34 38.97 191.34 50.06 195.25 50.06 195.25 32.98 191.22 32.98 184.94 44.1 184.79 44.1 184.79 32.98 180.88 32.98 180.88 50.06 184.89 50.06 191.19 38.97"/>
</svg>
